<svg width="830" height="588" viewBox="0 0 830 588" fill="none" xmlns="http://www.w3.org/2000/svg">
<g clip-path="url(#clip0_13_1771)">
<path d="M85.7569 572.858L99.5179 572.857L106.065 519.775L85.7539 519.776L85.7569 572.858Z" fill="#FFB6B6"/>
<path d="M85.2722 587.214L127.592 587.212V586.677C127.591 582.309 125.856 578.119 122.767 575.03C119.678 571.941 115.488 570.206 111.12 570.206H111.119L103.388 564.341L88.9657 570.206L85.2715 570.207L85.2722 587.214Z" fill="#2F2E41"/>
<path d="M107.98 508.635L118.814 517.121L156.702 479.371L140.712 466.846L107.98 508.635Z" fill="#FFB6B6"/>
<path d="M98.7451 519.638L132.061 545.734L132.391 545.312C135.084 541.873 136.302 537.505 135.775 533.168C135.248 528.832 133.02 524.882 129.581 522.188L129.581 522.187L127.112 512.804L112.141 508.527L109.233 506.249L98.7451 519.638Z" fill="#2F2E41"/>
<path d="M172.771 266.775C172.771 266.775 191.036 285.716 182.918 329.686L189.733 404.974L191.492 408.46C192.54 410.536 192.906 412.891 192.537 415.188C192.169 417.485 191.085 419.607 189.44 421.252V421.252L187.991 425.745L186.638 434.539L136.241 510.304L116.962 490.01L148.08 418.981L139.624 400.716L120.006 337.128L106.477 453.481L109.183 553.598H83.2875L67.2413 441.981L50.3296 285.039L59.1264 266.775H172.771Z" fill="#2F2E41"/>
<path d="M54.5468 299.321L54.3623 299.062C44.5058 285.262 59.33 252.103 61.5658 247.296C58.9108 246.435 56.6366 244.679 55.1304 242.329C53.6243 239.979 52.9793 237.18 53.3054 234.408L54.2693 226.215L55.2739 218.178L48.0765 210.981L48.0563 210.802L43.9143 174.559L37.8919 150.487C35.6228 141.387 35.8162 131.847 38.4522 122.847C41.0883 113.846 46.0721 105.709 52.892 99.271L66.8126 97.0605L83.7304 80.7599H111.012L120.367 89.6973C137.829 92.76 140.829 91.7599 155.829 109.76L149.013 165.722L147.313 173.421L147.318 183.863L151.641 188.667C153.198 190.398 154.33 192.468 154.945 194.713C155.561 196.958 155.644 199.316 155.187 201.599L154.619 204.441C159.077 206.352 163.331 240.307 164.348 245.049L165.866 252.134C167.165 253.848 175.739 265.28 175.739 268.405C175.739 268.875 175.392 269.328 174.649 269.831C168.806 273.788 145.512 301.854 131.218 296.134C115.993 290.047 55.4711 299.179 54.8614 299.272L54.5468 299.321Z" fill="#3F3D56"/>
<path d="M50.8817 234.245C50.8817 234.245 57.8877 194.651 50.8296 179.76L22.8296 181.76L27.0908 238.247L51.568 300.964C51.1944 302.896 51.3387 304.893 51.9863 306.752C52.6339 308.61 53.7617 310.264 55.2552 311.546C56.7487 312.828 58.5548 313.691 60.4901 314.049C62.4253 314.407 64.4209 314.247 66.2741 313.585C68.1273 312.922 69.7723 311.781 71.0419 310.277C72.3116 308.773 73.1607 306.96 73.5032 305.022C73.8456 303.084 73.6692 301.09 72.9918 299.242C72.3144 297.394 71.1601 295.759 69.6461 294.501L50.8817 234.245Z" fill="#FFB6B6"/>
<path d="M22.8297 158.76L24.5626 139.889C25.2148 132.786 27.2648 125.883 30.5947 119.576C33.9245 113.268 38.4685 107.682 43.9653 103.137V103.137C47.3807 100.334 51.5119 98.5422 55.8922 97.964C60.2724 97.3858 64.7271 98.0442 68.7528 99.8649V99.8649C74.1933 102.37 78.4797 106.847 80.7453 112.391C83.011 117.935 83.0868 124.133 80.9575 129.731C74.486 146.704 76.8228 164.652 64.204 166.841L65.575 173.363L53.1676 213.854L17.8296 209.76L22.8297 158.76Z" fill="#3F3D56"/>
<path d="M209.207 215.479C209.207 215.479 188.697 180.893 173.636 174.207L153.713 193.983L193.78 234.027L253.236 265.611C254.213 267.32 255.624 268.74 257.327 269.726C259.03 270.713 260.964 271.231 262.932 271.229C264.9 271.227 266.833 270.704 268.533 269.713C270.234 268.722 271.642 267.3 272.615 265.589C273.588 263.878 274.091 261.94 274.073 259.972C274.055 258.004 273.516 256.076 272.512 254.383C271.507 252.691 270.073 251.294 268.355 250.335C266.636 249.376 264.694 248.888 262.727 248.922L209.207 215.479Z" fill="#FFB6B6"/>
<path d="M138.713 176.546L127.721 161.11C123.584 155.3 120.636 148.73 119.047 141.777C117.458 134.824 117.26 127.625 118.463 120.595V120.595C119.225 116.243 121.188 112.19 124.132 108.895C127.075 105.601 130.882 103.195 135.121 101.95V101.95C140.879 100.301 147.048 100.9 152.381 103.625C157.715 106.351 161.814 111 163.85 116.633C170.012 133.72 192.489 161.803 184.349 171.691L189.642 175.742L197.641 198.529L168.181 218.471L138.713 176.546Z" fill="#3F3D56"/>
<path d="M95.5306 72.8854C112.264 72.8854 125.829 59.3202 125.829 42.5867C125.829 25.8533 112.264 12.2881 95.5306 12.2881C78.7971 12.2881 65.2319 25.8533 65.2319 42.5867C65.2319 59.3202 78.7971 72.8854 95.5306 72.8854Z" fill="#FFB6B6"/>
<path d="M73.5422 63.9427C73.2777 63.7108 73.0281 63.4631 72.7696 63.2247C72.7603 63.2492 72.7589 63.2742 72.749 63.2986L73.5422 63.9427Z" fill="#2F2E41"/>
<path d="M120.36 10.5913C118.855 8.1679 116.77 6.15751 114.293 4.74155C112.6 3.9205 110.821 3.29023 108.989 2.86235L104.194 1.55408C101.737 0.79385 99.2098 0.284897 96.6502 0.035064C93.0958 -0.140278 89.5616 0.66451 86.4336 2.36151C83.3055 4.05851 80.704 6.58246 78.9131 9.6577C77.4644 12.2272 76.3024 15.4292 73.5064 16.3693C71.2519 17.1274 68.7921 16.0581 66.4227 16.2656C65.0342 16.4668 63.7168 17.0073 62.5873 17.8394C61.4577 18.6714 60.5508 19.7692 59.9469 21.0356C58.7661 23.5839 58.1849 26.3689 58.248 29.1768C58.1549 35.5517 59.3991 41.8753 61.9003 47.7398C64.4015 53.6043 68.1042 58.8794 72.7696 63.2248C73.5516 61.1635 72.2636 58.938 71.2454 56.9662C70.2152 54.971 69.5785 52.1894 71.304 50.7524C73.224 49.1534 76.3001 50.7039 78.5708 49.6612C79.2973 49.2439 79.9091 48.6532 80.3516 47.9419C80.7942 47.2305 81.0536 46.4207 81.1069 45.5846C81.3267 43.9279 81.0973 42.2438 81.2012 40.5758C81.3043 38.9224 81.7339 37.3058 82.4652 35.8193C83.1965 34.3328 84.2151 33.0059 85.4621 31.9153C86.7091 30.8247 88.1598 29.9919 89.7304 29.465C91.301 28.9382 92.9605 28.7277 94.6129 28.8457C99.7813 29.2149 104.797 32.7467 109.771 31.2937C112.106 30.6117 114.097 28.8753 116.512 28.5832C119.186 28.2597 121.702 29.7689 123.972 31.218C124.797 27.7144 124.903 24.0797 124.282 20.5342C123.661 16.9887 122.327 13.6061 120.36 10.5913Z" fill="#2F2E41"/>
<path d="M259.398 238.297V525.321C259.401 528.979 260.855 532.486 263.442 535.073C266.028 537.659 269.535 539.113 273.193 539.116H698.533C702.19 539.113 705.697 537.659 708.284 535.073C710.87 532.486 712.325 528.979 712.327 525.321V238.297C712.319 234.643 710.862 231.141 708.277 228.558C705.691 225.975 702.187 224.522 698.533 224.518H273.193C269.538 224.522 266.034 225.975 263.449 228.558C260.863 231.141 259.407 234.643 259.398 238.297V238.297Z" fill="#3F3D56"/>
<path d="M270 238.388V518.3C270.003 520.254 270.781 522.127 272.163 523.509C273.545 524.891 275.418 525.669 277.373 525.672H695.616C697.57 525.669 699.443 524.891 700.825 523.509C702.207 522.127 702.985 520.254 702.988 518.3V238.388C702.988 236.431 702.212 234.555 700.83 233.169C699.448 231.784 697.573 231.004 695.616 231H277.373C275.416 231.004 273.541 231.784 272.159 233.169C270.777 234.555 270 236.431 270 238.388Z" fill="#121212"/>
<path d="M250.502 581.299C251.282 582.276 252.272 583.063 253.399 583.603C254.527 584.142 255.761 584.419 257.011 584.413H712.45C713.696 584.411 714.925 584.132 716.049 583.596C717.173 583.059 718.164 582.279 718.948 581.311C719.733 580.344 720.292 579.214 720.585 578.003C720.878 576.793 720.898 575.532 720.642 574.313L713.572 540.732C713.279 539.362 712.648 538.088 711.737 537.025C710.826 535.961 709.663 535.143 708.354 534.644C707.407 534.272 706.398 534.082 705.38 534.083H264.053C263.035 534.082 262.026 534.272 261.079 534.644C259.771 535.143 258.608 535.961 257.696 537.025C256.785 538.088 256.154 539.362 255.861 540.732L248.791 574.313C248.54 575.531 248.563 576.791 248.859 577.999C249.155 579.207 249.716 580.335 250.502 581.299V581.299Z" fill="#2F2E41"/>
<rect x="584" y="325" width="76" height="12" fill="#2F2E41"/>
<path d="M679.532 285.154H292.209C291.943 285.148 291.691 285.039 291.505 284.849C291.319 284.659 291.215 284.404 291.215 284.139C291.215 283.873 291.319 283.619 291.505 283.429C291.691 283.239 291.943 283.129 292.209 283.124H679.532C679.797 283.129 680.05 283.239 680.236 283.429C680.421 283.619 680.525 283.873 680.525 284.139C680.525 284.404 680.421 284.659 680.236 284.849C680.05 285.039 679.797 285.148 679.532 285.154Z" fill="#CACACA"/>
<rect x="584" y="341" width="76" height="17" fill="#2F2E41"/>
<path d="M584 368H659V378H584V368Z" fill="#2F2E41"/>
<rect x="584" y="391" width="67" height="19" fill="#2F2E41"/>
<rect x="298" y="318" width="229" height="158" fill="#2F2E41"/>
<rect x="537" y="255" width="37" height="10" fill="#2F2E41"/>
<path d="M488 255H525V265H488V255Z" fill="#2F2E41"/>
<path d="M586 255H623V265H586V255Z" fill="#2F2E41"/>
<path d="M635 255H672V265H635V255Z" fill="#2F2E41"/>
<path d="M688.606 548.547H701.657C701.927 548.547 702.146 548.329 702.146 548.059V540.619C702.146 540.349 701.927 540.131 701.657 540.131H688.606C688.337 540.131 688.118 540.349 688.118 540.619V548.059C688.118 548.329 688.337 548.547 688.606 548.547Z" fill="#3F3D56"/>
<path d="M660.552 548.547H673.603C673.872 548.547 674.091 548.329 674.091 548.059V540.619C674.091 540.349 673.872 540.131 673.603 540.131H660.552C660.282 540.131 660.063 540.349 660.063 540.619V548.059C660.063 548.329 660.282 548.547 660.552 548.547Z" fill="#3F3D56"/>
<path d="M632.497 548.547H645.548C645.818 548.547 646.036 548.329 646.036 548.059V540.619C646.036 540.349 645.818 540.131 645.548 540.131H632.497C632.227 540.131 632.009 540.349 632.009 540.619V548.059C632.009 548.329 632.227 548.547 632.497 548.547Z" fill="#3F3D56"/>
<path d="M604.442 548.547H617.493C617.763 548.547 617.981 548.329 617.981 548.059V540.619C617.981 540.349 617.763 540.131 617.493 540.131H604.442C604.173 540.131 603.954 540.349 603.954 540.619V548.059C603.954 548.329 604.173 548.547 604.442 548.547Z" fill="#3F3D56"/>
<path d="M576.388 548.547H589.439C589.708 548.547 589.927 548.329 589.927 548.059V540.619C589.927 540.349 589.708 540.131 589.439 540.131H576.388C576.118 540.131 575.899 540.349 575.899 540.619V548.059C575.899 548.329 576.118 548.547 576.388 548.547Z" fill="#3F3D56"/>
<path d="M548.333 548.547H561.384C561.654 548.547 561.873 548.329 561.873 548.059V540.619C561.873 540.349 561.654 540.131 561.384 540.131H548.333C548.064 540.131 547.845 540.349 547.845 540.619V548.059C547.845 548.329 548.064 548.547 548.333 548.547Z" fill="#3F3D56"/>
<path d="M520.279 548.547H533.33C533.599 548.547 533.818 548.329 533.818 548.059V540.619C533.818 540.349 533.599 540.131 533.33 540.131H520.279C520.009 540.131 519.791 540.349 519.791 540.619V548.059C519.791 548.329 520.009 548.547 520.279 548.547Z" fill="#3F3D56"/>
<path d="M492.224 548.547H505.275C505.545 548.547 505.763 548.329 505.763 548.059V540.619C505.763 540.349 505.545 540.131 505.275 540.131H492.224C491.954 540.131 491.736 540.349 491.736 540.619V548.059C491.736 548.329 491.954 548.547 492.224 548.547Z" fill="#3F3D56"/>
<path d="M464.169 548.547H477.22C477.49 548.547 477.708 548.329 477.708 548.059V540.619C477.708 540.349 477.49 540.131 477.22 540.131H464.169C463.9 540.131 463.681 540.349 463.681 540.619V548.059C463.681 548.329 463.9 548.547 464.169 548.547Z" fill="#3F3D56"/>
<path d="M436.115 548.547H449.166C449.435 548.547 449.654 548.329 449.654 548.059V540.619C449.654 540.349 449.435 540.131 449.166 540.131H436.115C435.845 540.131 435.627 540.349 435.627 540.619V548.059C435.627 548.329 435.845 548.547 436.115 548.547Z" fill="#3F3D56"/>
<path d="M408.06 548.547H421.111C421.381 548.547 421.599 548.329 421.599 548.059V540.619C421.599 540.349 421.381 540.131 421.111 540.131H408.06C407.79 540.131 407.572 540.349 407.572 540.619V548.059C407.572 548.329 407.79 548.547 408.06 548.547Z" fill="#3F3D56"/>
<path d="M380.005 548.547H393.056C393.326 548.547 393.544 548.329 393.544 548.059V540.619C393.544 540.349 393.326 540.131 393.056 540.131H380.005C379.736 540.131 379.517 540.349 379.517 540.619V548.059C379.517 548.329 379.736 548.547 380.005 548.547Z" fill="#3F3D56"/>
<path d="M351.951 548.547H365.002C365.271 548.547 365.49 548.329 365.49 548.059V540.619C365.49 540.349 365.271 540.131 365.002 540.131H351.951C351.681 540.131 351.462 540.349 351.462 540.619V548.059C351.462 548.329 351.681 548.547 351.951 548.547Z" fill="#3F3D56"/>
<path d="M323.896 548.547H336.947C337.216 548.547 337.435 548.329 337.435 548.059V540.619C337.435 540.349 337.216 540.131 336.947 540.131H323.896C323.626 540.131 323.408 540.349 323.408 540.619V548.059C323.408 548.329 323.626 548.547 323.896 548.547Z" fill="#3F3D56"/>
<path d="M295.842 548.547H308.893C309.162 548.547 309.381 548.329 309.381 548.059V540.619C309.381 540.349 309.162 540.131 308.893 540.131H295.842C295.572 540.131 295.354 540.349 295.354 540.619V548.059C295.354 548.329 295.572 548.547 295.842 548.547Z" fill="#3F3D56"/>
<path d="M267.787 548.547H280.838C281.108 548.547 281.326 548.329 281.326 548.059V540.619C281.326 540.349 281.108 540.131 280.838 540.131H267.787C267.517 540.131 267.299 540.349 267.299 540.619V548.059C267.299 548.329 267.517 548.547 267.787 548.547Z" fill="#3F3D56"/>
<path d="M688.938 562.574H701.989C702.258 562.574 702.477 562.356 702.477 562.086V554.646C702.477 554.377 702.258 554.158 701.989 554.158H688.938C688.668 554.158 688.45 554.377 688.45 554.646V562.086C688.45 562.356 688.668 562.574 688.938 562.574Z" fill="#3F3D56"/>
<path d="M660.883 562.574H673.934C674.204 562.574 674.422 562.356 674.422 562.086V554.646C674.422 554.377 674.204 554.158 673.934 554.158H660.883C660.614 554.158 660.395 554.377 660.395 554.646V562.086C660.395 562.356 660.614 562.574 660.883 562.574Z" fill="#3F3D56"/>
<path d="M632.829 562.574H645.88C646.149 562.574 646.368 562.356 646.368 562.086V554.646C646.368 554.377 646.149 554.158 645.88 554.158H632.829C632.559 554.158 632.34 554.377 632.34 554.646V562.086C632.34 562.356 632.559 562.574 632.829 562.574Z" fill="#3F3D56"/>
<path d="M604.774 562.574H617.825C618.095 562.574 618.313 562.356 618.313 562.086V554.646C618.313 554.377 618.095 554.158 617.825 554.158H604.774C604.505 554.158 604.286 554.377 604.286 554.646V562.086C604.286 562.356 604.505 562.574 604.774 562.574Z" fill="#3F3D56"/>
<path d="M576.72 562.574H589.771C590.04 562.574 590.259 562.356 590.259 562.086V554.646C590.259 554.377 590.04 554.158 589.771 554.158H576.72C576.45 554.158 576.231 554.377 576.231 554.646V562.086C576.231 562.356 576.45 562.574 576.72 562.574Z" fill="#3F3D56"/>
<path d="M548.665 562.574H561.716C561.986 562.574 562.204 562.356 562.204 562.086V554.646C562.204 554.377 561.986 554.158 561.716 554.158H548.665C548.395 554.158 548.177 554.377 548.177 554.646V562.086C548.177 562.356 548.395 562.574 548.665 562.574Z" fill="#3F3D56"/>
<path d="M520.61 562.574H533.661C533.931 562.574 534.149 562.356 534.149 562.086V554.646C534.149 554.377 533.931 554.158 533.661 554.158H520.61C520.341 554.158 520.122 554.377 520.122 554.646V562.086C520.122 562.356 520.341 562.574 520.61 562.574Z" fill="#3F3D56"/>
<path d="M492.556 562.574H505.607C505.876 562.574 506.095 562.356 506.095 562.086V554.646C506.095 554.377 505.876 554.158 505.607 554.158H492.556C492.286 554.158 492.067 554.377 492.067 554.646V562.086C492.067 562.356 492.286 562.574 492.556 562.574Z" fill="#3F3D56"/>
<path d="M464.501 562.574H477.552C477.821 562.574 478.04 562.356 478.04 562.086V554.646C478.04 554.377 477.821 554.158 477.552 554.158H464.501C464.231 554.158 464.013 554.377 464.013 554.646V562.086C464.013 562.356 464.231 562.574 464.501 562.574Z" fill="#3F3D56"/>
<path d="M436.446 562.574H449.497C449.767 562.574 449.985 562.356 449.985 562.086V554.646C449.985 554.377 449.767 554.158 449.497 554.158H436.446C436.177 554.158 435.958 554.377 435.958 554.646V562.086C435.958 562.356 436.177 562.574 436.446 562.574Z" fill="#3F3D56"/>
<path d="M408.392 562.574H421.443C421.712 562.574 421.931 562.356 421.931 562.086V554.646C421.931 554.377 421.712 554.158 421.443 554.158H408.392C408.122 554.158 407.903 554.377 407.903 554.646V562.086C407.903 562.356 408.122 562.574 408.392 562.574Z" fill="#3F3D56"/>
<path d="M380.337 562.574H393.388C393.657 562.574 393.876 562.356 393.876 562.086V554.646C393.876 554.377 393.657 554.158 393.388 554.158H380.337C380.067 554.158 379.849 554.377 379.849 554.646V562.086C379.849 562.356 380.067 562.574 380.337 562.574Z" fill="#3F3D56"/>
<path d="M352.282 562.574H365.333C365.603 562.574 365.821 562.356 365.821 562.086V554.646C365.821 554.377 365.603 554.158 365.333 554.158H352.282C352.012 554.158 351.794 554.377 351.794 554.646V562.086C351.794 562.356 352.012 562.574 352.282 562.574Z" fill="#3F3D56"/>
<path d="M324.227 562.574H337.278C337.548 562.574 337.767 562.356 337.767 562.086V554.646C337.767 554.377 337.548 554.158 337.278 554.158H324.227C323.958 554.158 323.739 554.377 323.739 554.646V562.086C323.739 562.356 323.958 562.574 324.227 562.574Z" fill="#3F3D56"/>
<path d="M296.173 562.574H309.224C309.493 562.574 309.712 562.356 309.712 562.086V554.646C309.712 554.377 309.493 554.158 309.224 554.158H296.173C295.903 554.158 295.685 554.377 295.685 554.646V562.086C295.685 562.356 295.903 562.574 296.173 562.574Z" fill="#3F3D56"/>
<path d="M268.118 562.574H281.169C281.439 562.574 281.657 562.356 281.657 562.086V554.646C281.657 554.377 281.439 554.158 281.169 554.158H268.118C267.848 554.158 267.63 554.377 267.63 554.646V562.086C267.63 562.356 267.848 562.574 268.118 562.574Z" fill="#3F3D56"/>
<path d="M425.085 579.407H536.327C536.596 579.407 536.815 579.189 536.815 578.919V571.479C536.815 571.209 536.596 570.991 536.327 570.991H425.085C424.815 570.991 424.596 571.209 424.596 571.479V578.919C424.596 579.189 424.815 579.407 425.085 579.407Z" fill="#3F3D56"/>
</g>
<defs>
<clipPath id="clip0_13_1771">
<rect width="829.131" height="587.676" fill="white"/>
</clipPath>
</defs>
</svg>
